<svg width="24" height="24" viewBox="0 0 24 24" fill="none" xmlns="http://www.w3.org/2000/svg">
<g clip-path="url(#clip0)">
<path d="M12.75 14.25H23.25L22.586 18.236C22.3526 19.6371 21.6296 20.91 20.5458 21.8282C19.4619 22.7463 18.0875 23.2501 16.667 23.25H7.333C5.91254 23.2501 4.5381 22.7463 3.45425 21.8282C2.37039 20.91 1.64743 19.6371 1.414 18.236L0.75 14.25H5.25" stroke="#A3ADC2" stroke-width="1.5" stroke-linecap="round" stroke-linejoin="round"/>
<path d="M12 20.25H6C5.80109 20.25 5.61032 20.171 5.46967 20.0303C5.32902 19.8897 5.25 19.6989 5.25 19.5V14.25C5.25 13.8522 5.40804 13.4706 5.68934 13.1893C5.97064 12.908 6.35218 12.75 6.75 12.75H11.25C11.6478 12.75 12.0294 12.908 12.3107 13.1893C12.592 13.4706 12.75 13.8522 12.75 14.25V19.5C12.75 19.6989 12.671 19.8897 12.5303 20.0303C12.3897 20.171 12.1989 20.25 12 20.25Z" stroke="#A3ADC2" stroke-width="1.5" stroke-linecap="round" stroke-linejoin="round"/>
<path d="M15.75 3.75C15.75 2.95435 16.0661 2.19129 16.6287 1.62868C17.1913 1.06607 17.9544 0.75 18.75 0.75C19.5456 0.75 20.3087 1.06607 20.8713 1.62868C21.4339 2.19129 21.75 2.95435 21.75 3.75V14.25" stroke="#A3ADC2" stroke-width="1.5" stroke-linecap="round" stroke-linejoin="round"/>
<path d="M12.75 6.75C12.75 5.95435 13.0661 5.19129 13.6287 4.62868C14.1913 4.06607 14.9544 3.75 15.75 3.75C16.5456 3.75 17.3087 4.06607 17.8713 4.62868C18.4339 5.19129 18.75 5.95435 18.75 6.75H12.75Z" stroke="#A3ADC2" stroke-width="1.5" stroke-linecap="round" stroke-linejoin="round"/>
</g>
<defs>
<clipPath id="clip0">
<rect width="24" height="24" fill="white"/>
</clipPath>
</defs>
</svg>
