<svg width="24" height="24" viewBox="0 0 24 24" fill="none" xmlns="http://www.w3.org/2000/svg">
<path d="M3 11.25V9C3 8.60218 3.15804 8.22064 3.43934 7.93934C3.72064 7.65804 4.10218 7.5 4.5 7.5H10.5C10.8978 7.5 11.2794 7.65804 11.5607 7.93934C11.842 8.22064 12 8.60218 12 9V11.25" stroke="#A3ADC2" stroke-width="1.5" stroke-linecap="round" stroke-linejoin="round"/>
<path d="M12 11.25V9C12 8.60218 12.158 8.22064 12.4393 7.93934C12.7206 7.65804 13.1022 7.5 13.5 7.5H19.5C19.8978 7.5 20.2794 7.65804 20.5607 7.93934C20.842 8.22064 21 8.60218 21 9V11.25" stroke="#A3ADC2" stroke-width="1.5" stroke-linecap="round" stroke-linejoin="round"/>
<path d="M2.75 11.25H21.25C21.7804 11.25 22.2891 11.4607 22.6642 11.8358C23.0393 12.2109 23.25 12.7196 23.25 13.25V18H0.75V13.25C0.75 12.7196 0.960714 12.2109 1.33579 11.8358C1.71086 11.4607 2.21957 11.25 2.75 11.25V11.25Z" stroke="#A3ADC2" stroke-width="1.5" stroke-linecap="round" stroke-linejoin="round"/>
<path d="M0.75 18V21" stroke="#A3ADC2" stroke-width="1.5" stroke-linecap="round" stroke-linejoin="round"/>
<path d="M23.25 18V21" stroke="#A3ADC2" stroke-width="1.5" stroke-linecap="round" stroke-linejoin="round"/>
<path d="M21 11.25V4.5C21 4.10218 20.842 3.72064 20.5607 3.43934C20.2794 3.15804 19.8978 3 19.5 3H4.5C4.10218 3 3.72064 3.15804 3.43934 3.43934C3.15804 3.72064 3 4.10218 3 4.5V11.25" stroke="#A3ADC2" stroke-width="1.5" stroke-linecap="round" stroke-linejoin="round"/>
</svg>
