<svg width="36" height="36" viewBox="0 0 36 36" fill="none" xmlns="http://www.w3.org/2000/svg">
<path d="M2.25 34.875V12.375H15.75V34.875" stroke="#2662D9" stroke-width="2.25" stroke-linecap="round" stroke-linejoin="round"/>
<path d="M6.75 34.875V16.875" stroke="#2662D9" stroke-width="2.25" stroke-linecap="round" stroke-linejoin="round"/>
<path d="M11.25 34.875V16.875" stroke="#2662D9" stroke-width="2.25" stroke-linecap="round" stroke-linejoin="round"/>
<path d="M2.25 12.375L9 4.5L15.75 12.375" stroke="#2662D9" stroke-width="2.25" stroke-linecap="round" stroke-linejoin="round"/>
<path d="M9 1.125V4.5" stroke="#2662D9" stroke-width="2.25" stroke-linecap="round" stroke-linejoin="round"/>
<path d="M33.75 34.8748V16.5613C33.7499 16.3251 33.6756 16.0949 33.5375 15.9032C33.3994 15.7115 33.2045 15.5681 32.9805 15.4933L21.7305 11.7433C21.5613 11.6866 21.3811 11.671 21.2047 11.6978C21.0284 11.7246 20.8609 11.793 20.7162 11.8974C20.5715 12.0018 20.4538 12.1391 20.3727 12.298C20.2916 12.4569 20.2496 12.6329 20.25 12.8113V34.8748" stroke="#2662D9" stroke-width="2.25" stroke-linecap="round" stroke-linejoin="round"/>
<path d="M29.25 31.5V32.625" stroke="#2662D9" stroke-width="2.25" stroke-linecap="round" stroke-linejoin="round"/>
<path d="M29.25 25.875V27" stroke="#2662D9" stroke-width="2.25" stroke-linecap="round" stroke-linejoin="round"/>
<path d="M29.25 20.25V21.375" stroke="#2662D9" stroke-width="2.25" stroke-linecap="round" stroke-linejoin="round"/>
<path d="M24.75 31.5V32.625" stroke="#2662D9" stroke-width="2.25" stroke-linecap="round" stroke-linejoin="round"/>
<path d="M24.75 25.875V27" stroke="#2662D9" stroke-width="2.25" stroke-linecap="round" stroke-linejoin="round"/>
<path d="M24.75 20.25V21.375" stroke="#2662D9" stroke-width="2.25" stroke-linecap="round" stroke-linejoin="round"/>
</svg>
