<svg width="16" height="16" viewBox="0 0 16 16" fill="none" xmlns="http://www.w3.org/2000/svg">
<g clip-path="url(#clip0)">
<path d="M8 7C9.10457 7 10 6.10457 10 5C10 3.89543 9.10457 3 8 3C6.89543 3 6 3.89543 6 5C6 6.10457 6.89543 7 8 7Z" stroke="#A3ADC2" stroke-linecap="round" stroke-linejoin="round"/>
<path d="M8 0.5C9.19347 0.5 10.3381 0.974106 11.182 1.81802C12.0259 2.66193 12.5 3.80653 12.5 5C12.5 7.16733 9.07867 12.018 8.20267 13.2247C8.17932 13.2565 8.14881 13.2824 8.1136 13.3002C8.07839 13.3181 8.03947 13.3274 8 13.3274C7.96053 13.3274 7.92161 13.3181 7.8864 13.3002C7.85119 13.2824 7.82068 13.2565 7.79733 13.2247C6.92133 12.018 3.5 7.16733 3.5 5C3.5 3.80653 3.97411 2.66193 4.81802 1.81802C5.66193 0.974106 6.80653 0.5 8 0.5V0.5Z" stroke="#A3ADC2" stroke-linecap="round" stroke-linejoin="round"/>
<path d="M11.986 11.856C13.8073 12.2166 15 12.8186 15 13.5C15 14.6046 11.8667 15.5 8 15.5C4.13333 15.5 1 14.6046 1 13.5C1 12.82 2.18733 12.2193 4 11.858" stroke="#A3ADC2" stroke-linecap="round" stroke-linejoin="round"/>
</g>
<defs>
<clipPath id="clip0">
<rect width="16" height="16" fill="white"/>
</clipPath>
</defs>
</svg>
