<svg width="362" height="250" viewBox="0 0 362 250" fill="none" xmlns="http://www.w3.org/2000/svg">
<rect width="362" height="250" fill="#E0E4EB"/>
<path d="M210.25 91.25H151.75C149.265 91.25 147.25 93.2647 147.25 95.75V154.25C147.25 156.735 149.265 158.75 151.75 158.75H210.25C212.735 158.75 214.75 156.735 214.75 154.25V95.75C214.75 93.2647 212.735 91.25 210.25 91.25Z" stroke="#C2C9D6" stroke-width="4.5" stroke-linecap="round" stroke-linejoin="round"/>
<path d="M194.5 120.5C199.471 120.5 203.5 116.471 203.5 111.5C203.5 106.529 199.471 102.5 194.5 102.5C189.529 102.5 185.5 106.529 185.5 111.5C185.5 116.471 189.529 120.5 194.5 120.5Z" stroke="#C2C9D6" stroke-width="4.5" stroke-linecap="round" stroke-linejoin="round"/>
<path d="M156.883 133.878C159.952 132.129 163.362 131.061 166.881 130.749C170.4 130.437 173.945 130.887 177.274 132.068C180.603 133.249 183.639 135.134 186.174 137.594C188.709 140.055 190.684 143.032 191.965 146.325" stroke="#C2C9D6" stroke-width="4.5" stroke-linecap="round" stroke-linejoin="round"/>
<path d="M188.146 139.753C190.532 137.579 193.625 136.343 196.852 136.274C200.08 136.205 203.223 137.308 205.699 139.378" stroke="#C2C9D6" stroke-width="4.5" stroke-linecap="round" stroke-linejoin="round"/>
</svg>
