<svg width="36" height="36" viewBox="0 0 36 36" fill="none" xmlns="http://www.w3.org/2000/svg">
<path d="M3.375 14.0996V32.6246H10.125V23.6246C10.125 23.0279 10.3621 22.4556 10.784 22.0336C11.206 21.6117 11.7783 21.3746 12.375 21.3746H14.625C15.2217 21.3746 15.794 21.6117 16.216 22.0336C16.6379 22.4556 16.875 23.0279 16.875 23.6246V32.6246H32.625V14.0996" stroke="#2662D9" stroke-width="2.25" stroke-linecap="round" stroke-linejoin="round"/>
<path d="M34.875 15.7501L19.3305 4.35009C18.9446 4.06712 18.4785 3.91455 18 3.91455C17.5215 3.91455 17.0554 4.06712 16.6695 4.35009L1.125 15.7501" stroke="#2662D9" stroke-width="2.25" stroke-linecap="round" stroke-linejoin="round"/>
<path d="M23.625 7.5V3.375H30.375V12.45" stroke="#2662D9" stroke-width="2.25" stroke-linecap="round" stroke-linejoin="round"/>
<path d="M28.125 21.375H21.375V28.125H28.125V21.375Z" stroke="#2662D9" stroke-width="2.25" stroke-linecap="round" stroke-linejoin="round"/>
<path d="M1.125 32.625H34.875" stroke="#2662D9" stroke-width="2.25" stroke-linecap="round" stroke-linejoin="round"/>
</svg>
