<?xml version="1.0" encoding="UTF-8"?>
<svg id="Layer_2" data-name="Layer 2" xmlns="http://www.w3.org/2000/svg" viewBox="0 0 784.74 275.96">
  <defs>
    <style>
      .cls-1, .cls-2 {
        stroke-width: 0px;
      }

      .cls-2 {
        fill: #03a3cd;
      }
    </style>
  </defs>
  <g id="Layer_1-2" data-name="Layer 1">
    <g>
      <circle class="cls-2" cx="9.7" cy="9.7" r="9.7"/>
      <circle class="cls-2" cx="775.04" cy="9.7" r="9.7"/>
      <g>
        <rect class="cls-1" x="3.09" y="59.5" width="13.22" height="136.64"/>
        <polygon class="cls-1" points="129.2 171.25 71.49 54.29 58.41 193.14 71.59 193.14 80.26 99.47 129.2 198.66 178.14 99.47 186.82 193.14 200 193.14 186.92 54.29 129.2 171.25"/>
        <path class="cls-1" d="M368.59,128.28c.35-17.74-6.79-35.3-19.61-48.17-12.76-12.82-30.14-20.05-47.76-19.77-17.62-.27-34.99,6.94-47.76,19.77-12.81,12.87-19.96,30.43-19.61,48.09-.35,17.74,6.79,35.3,19.61,48.17,12.54,12.6,29.56,19.77,46.77,19.77.32,0,.63,0,.95,0,17.59.27,35.01-6.94,47.79-19.77,12.81-12.87,19.96-30.43,19.6-48.09ZM355.07,128.28c.25,14.7-5.7,29.18-16.33,39.74-10.3,10.23-23.6,15.68-37.57,15.36-13.88.33-27.17-5.12-37.47-15.36-10.63-10.56-16.58-25.04-16.33-39.81-.25-14.7,5.7-29.18,16.33-39.74,10.3-10.23,23.6-15.7,37.47-15.36h.05s.05,0,.05,0c13.85-.34,27.17,5.12,37.47,15.36,10.63,10.56,16.58,25.04,16.33,39.81Z"/>
        <path class="cls-1" d="M445.15,120.59l-5.55-1.83c-16.51-5.63-23.25-12.64-23.25-24.19,0-12.89,9.66-22.25,22.96-22.25,8.66,0,17.8,3.52,27.18,10.45l2.57,1.9,2.62-14.18-1.09-.73c-9.88-6.62-20.99-10.26-31.28-10.26-20.59,0-36.12,15.08-36.12,35.07,0,17.57,10.42,29.72,31.9,37.17l5.56,1.83c15.99,5.34,22.52,12.61,22.52,25.11,0,14.28-10.94,24.64-26.01,24.64-11.04,0-22.82-5.48-32.34-15.03l-2.6-2.61-3.17,14.87.89.77c11.16,9.7,24.03,14.82,37.22,14.82,22.8,0,39.35-15.83,39.35-37.64,0-18.3-10.55-31.06-31.36-37.91Z"/>
        <path class="cls-1" d="M560.34,56.43l-59.95,139.71h14.05l21.55-50.68h48.71l21.55,50.68h14.24l-60.14-139.71ZM579.41,132.87h-38.13l19.07-45.01,19.07,45.01Z"/>
        <polygon class="cls-1" points="732.95 59.65 715.64 59.65 665.6 119.01 665.6 59.5 652.44 59.5 652.44 196.14 665.6 196.14 665.6 133.12 717.24 196.14 734.31 196.14 675.91 126.02 732.95 59.65"/>
        <rect class="cls-1" x="768.4" y="59.5" width="13.22" height="136.64"/>
        <path class="cls-1" d="M80.62,249.24c0-6.28-4.98-10.83-11.83-10.83h-7.17v33.17h6.13v-8.94l7.93,8.94h8.18l-10.95-12.17c4.58-1.43,7.71-5.33,7.71-10.16ZM68.79,244.41c3.39,0,5.58,1.91,5.58,4.88s-2.24,4.92-5.58,4.92h-1.04v-9.79h1.04Z"/>
        <polygon class="cls-1" points="104.66 257.45 115.71 257.45 115.71 251.41 104.66 251.41 104.66 244.41 118.29 244.41 117.04 238.41 98.54 238.41 98.54 271.58 117.54 271.58 118.79 265.58 104.66 265.58 104.66 257.45"/>
        <path class="cls-1" d="M131.65,271.58h6.62l5-11.54h9.29l5,11.54h6.67l-16.32-37.2-16.26,37.2ZM145.83,254.07l2.08-4.83,2.08,4.83h-4.17Z"/>
        <polygon class="cls-1" points="185.12 237.63 178.99 239.07 178.99 271.58 197.54 271.58 198.79 265.58 185.12 265.58 185.12 237.63"/>
        <polygon class="cls-1" points="245.16 257.45 256.21 257.45 256.21 251.41 245.16 251.41 245.16 244.41 258.79 244.41 257.54 238.41 239.04 238.41 239.04 271.58 258.04 271.58 259.29 265.58 245.16 265.58 245.16 257.45"/>
        <path class="cls-1" d="M286.57,251.88l-1.27-.41c-4.01-1.34-4.34-2.66-4.34-4.02,0-2.09,1.52-3.5,3.79-3.5,1.68,0,3.5.7,5.41,2.08l2.55,1.84,1.25-6.61-1.12-.73c-2.54-1.66-5.41-2.58-8.1-2.58-5.65,0-9.92,4.08-9.92,9.5,0,4.67,2.84,8,8.47,9.9l1.29.42c3.84,1.25,4.16,2.77,4.16,4.22,0,2.42-1.81,4.04-4.5,4.04-2.17,0-4.51-1.08-6.43-2.97l-2.58-2.53-1.53,7,.92.78c2.87,2.44,6.2,3.73,9.63,3.73,6.08,0,10.67-4.34,10.67-10.08,0-3.37-1.45-7.85-8.34-10.07Z"/>
        <polygon class="cls-1" points="309.41 238.41 308.16 244.41 317.7 244.41 317.7 271.58 323.83 271.58 323.83 244.41 333.28 244.41 332.16 238.41 309.41 238.41"/>
        <path class="cls-1" d="M341.02,271.58h6.62l5-11.54h9.29l5,11.54h6.67l-16.32-37.2-16.26,37.2ZM355.2,254.07l2.08-4.83,2.08,4.83h-4.17Z"/>
        <polygon class="cls-1" points="382.49 238.41 381.24 244.41 390.79 244.41 390.79 271.58 396.91 271.58 396.91 244.41 406.37 244.41 405.24 238.41 382.49 238.41"/>
        <polygon class="cls-1" points="427.91 257.45 438.96 257.45 438.96 251.41 427.91 251.41 427.91 244.41 441.54 244.41 440.29 238.41 421.79 238.41 421.79 271.58 440.79 271.58 442.04 265.58 427.91 265.58 427.91 257.45"/>
        <path class="cls-1" d="M478.31,271.58h6.62l5-11.54h9.29l5,11.54h6.67l-16.32-37.2-16.26,37.2ZM492.5,254.07l2.08-4.83,2.08,4.83h-4.17Z"/>
        <path class="cls-1" d="M535.8,258.49h9.45v6.53c-1.65.68-3.45,1.02-5.51,1.02-2.74.07-5.56-1.08-7.62-3.14-2.11-2.11-3.28-4.97-3.21-7.94-.05-2.88,1.13-5.74,3.24-7.84,2.12-2.11,4.87-3.25,7.85-3.17,2.39,0,4.73.68,6.61,1.92l2.51,1.66,1.24-6.6-1.28-.7c-2.75-1.49-5.89-2.28-9.05-2.28h0c-.08,0-.17,0-.25,0-4.52,0-8.95,1.85-12.18,5.1-3.25,3.26-4.98,7.52-4.89,11.9-.09,4.51,1.65,8.8,4.9,12.07,3.18,3.2,7.53,5.02,11.94,5.02,3.96,0,7.85-.96,10.87-2.79l.96-.58v-16.21h-14.34l-1.23,6.04Z"/>
        <polygon class="cls-1" points="635.37 259.78 612.91 234.03 612.91 271.58 619.04 271.58 619.04 250.17 641.5 275.96 641.5 237.54 635.37 239.1 635.37 259.78"/>
        <path class="cls-1" d="M682.36,264.21c-1.99,1.23-4.02,1.83-6.25,1.83-2.88.06-5.56-1.05-7.66-3.14-2.12-2.11-3.31-4.98-3.26-7.94-.05-2.9,1.14-5.76,3.26-7.87,2.1-2.09,4.81-3.21,7.7-3.14,2.03,0,4.1.58,5.84,1.63l2.46,1.48,1.24-6.46-1.34-.68c-2.56-1.3-5.3-1.97-8.14-1.97-4.56-.06-9.07,1.78-12.33,5.06-3.25,3.26-4.98,7.53-4.89,11.94-.09,4.5,1.65,8.78,4.89,12.04,3.2,3.21,7.58,5.04,12.03,5.04,3.08,0,6.1-.72,8.88-2.25l1.28-.7-1.25-6.39-2.46,1.52Z"/>
        <polygon class="cls-1" points="713.41 251.74 706.01 238.41 699.04 238.41 710.33 258.6 710.33 271.58 716.46 271.58 716.46 258.6 727.74 238.41 720.78 238.41 713.41 251.74"/>
        <polygon class="cls-1" points="578.31 256.97 589.68 256.97 589.68 250.87 578.31 250.87 578.31 243.54 592.33 243.54 591.07 237.48 572.12 237.48 572.12 271.52 591.58 271.52 592.85 265.46 578.31 265.46 578.31 256.97"/>
      </g>
    </g>
  </g>
</svg>