<svg width="36" height="36" viewBox="0 0 36 36" fill="none" xmlns="http://www.w3.org/2000/svg">
<path d="M7.875 29.3129C7.875 29.9096 7.63795 30.4819 7.21599 30.9039C6.79403 31.3258 6.22174 31.5629 5.625 31.5629H3.375C2.77826 31.5629 2.20597 31.3258 1.78401 30.9039C1.36205 30.4819 1.125 29.9096 1.125 29.3129V9.06289L3.5355 5.04589C3.63547 4.87939 3.77685 4.7416 3.94587 4.64594C4.11488 4.55028 4.30579 4.5 4.5 4.5C4.69421 4.5 4.88512 4.55028 5.05413 4.64594C5.22315 4.7416 5.36453 4.87939 5.4645 5.04589L7.875 9.06289V29.3129Z" stroke="#2662D9" stroke-width="2.25" stroke-linecap="round" stroke-linejoin="round"/>
<path d="M21.375 29.3129C21.375 29.9096 21.1379 30.4819 20.716 30.9039C20.294 31.3258 19.7217 31.5629 19.125 31.5629H16.875C16.2783 31.5629 15.706 31.3258 15.284 30.9039C14.8621 30.4819 14.625 29.9096 14.625 29.3129V9.06289L17.0355 5.04589C17.1355 4.87939 17.2768 4.7416 17.4459 4.64594C17.6149 4.55028 17.8058 4.5 18 4.5C18.1942 4.5 18.3851 4.55028 18.5541 4.64594C18.7232 4.7416 18.8645 4.87939 18.9645 5.04589L21.375 9.06289V29.3129Z" stroke="#2662D9" stroke-width="2.25" stroke-linecap="round" stroke-linejoin="round"/>
<path d="M34.875 29.3129C34.875 29.9096 34.6379 30.4819 34.216 30.9039C33.794 31.3258 33.2217 31.5629 32.625 31.5629H30.375C29.7783 31.5629 29.206 31.3258 28.784 30.9039C28.3621 30.4819 28.125 29.9096 28.125 29.3129V9.06289L30.5355 5.04589C30.6355 4.87939 30.7768 4.7416 30.9459 4.64594C31.1149 4.55028 31.3058 4.5 31.5 4.5C31.6942 4.5 31.8851 4.55028 32.0541 4.64594C32.2232 4.7416 32.3645 4.87939 32.4645 5.04589L34.875 9.06289V29.3129Z" stroke="#2662D9" stroke-width="2.25" stroke-linecap="round" stroke-linejoin="round"/>
<path d="M7.875 13.563H14.625" stroke="#2662D9" stroke-width="2.25" stroke-linecap="round" stroke-linejoin="round"/>
<path d="M21.375 13.563H28.125" stroke="#2662D9" stroke-width="2.25" stroke-linecap="round" stroke-linejoin="round"/>
<path d="M7.875 27.063H14.625" stroke="#2662D9" stroke-width="2.25" stroke-linecap="round" stroke-linejoin="round"/>
<path d="M21.375 27.063H28.125" stroke="#2662D9" stroke-width="2.25" stroke-linecap="round" stroke-linejoin="round"/>
</svg>
