<svg width="24" height="24" viewBox="0 0 24 24" fill="none" xmlns="http://www.w3.org/2000/svg">
<g clip-path="url(#clip0)">
<path d="M0.75 5.25V9.75C0.75 10.1478 0.908035 10.5294 1.18934 10.8107C1.47064 11.092 1.85218 11.25 2.25 11.25H17.25V18.75C17.25 19.1478 17.408 19.5294 17.6893 19.8107C17.9706 20.092 18.3522 20.25 18.75 20.25H21.75C22.1478 20.25 22.5294 20.092 22.8107 19.8107C23.092 19.5294 23.25 19.1478 23.25 18.75V3.75H2.25C1.85218 3.75 1.47064 3.90804 1.18934 4.18934C0.908035 4.47064 0.75 4.85218 0.75 5.25V5.25Z" stroke="#C2C9D6" stroke-width="1.5" stroke-linecap="round" stroke-linejoin="round"/>
<path d="M17.25 11.25L23.25 3.75" stroke="#C2C9D6" stroke-width="1.5" stroke-linecap="round" stroke-linejoin="round"/>
<path d="M3.75 9V11.25" stroke="#C2C9D6" stroke-width="1.5" stroke-linecap="round" stroke-linejoin="round"/>
<path d="M8.25 9V11.25" stroke="#C2C9D6" stroke-width="1.5" stroke-linecap="round" stroke-linejoin="round"/>
<path d="M12.75 9V11.25" stroke="#C2C9D6" stroke-width="1.5" stroke-linecap="round" stroke-linejoin="round"/>
<path d="M6 3.75V6" stroke="#C2C9D6" stroke-width="1.5" stroke-linecap="round" stroke-linejoin="round"/>
<path d="M10.5 3.75V6" stroke="#C2C9D6" stroke-width="1.5" stroke-linecap="round" stroke-linejoin="round"/>
<path d="M15 3.75V6" stroke="#C2C9D6" stroke-width="1.5" stroke-linecap="round" stroke-linejoin="round"/>
</g>
<defs>
<clipPath id="clip0">
<rect width="24" height="24" fill="white"/>
</clipPath>
</defs>
</svg>
