<?xml version="1.0" encoding="UTF-8"?>
<svg id="Layer_2" data-name="Layer 2" xmlns="http://www.w3.org/2000/svg" viewBox="0 0 784.74 270.62">
  <defs>
    <style>
      .cls-1 {
        fill: #03a3cd;
      }

      .cls-1, .cls-2 {
        stroke-width: 0px;
      }

      .cls-2 {
        fill: #fcfcfc;
      }
    </style>
  </defs>
  <g id="Layer_1-2" data-name="Layer 1">
    <g>
      <g>
        <path class="cls-2" d="M5.09,61.5v132.64h9.22V61.5H5.09Z"/>
        <path class="cls-2" d="M188.64,191.14l-9.16-98.91-50.28,101.91-50.28-101.91-9.16,98.91h-9.16l12.21-129.64,56.38,114.27,56.38-114.27,12.21,129.64h-9.16Z"/>
        <path class="cls-2" d="M301.23,62.35c35.73-.55,66.08,29.75,65.36,65.89.72,36.14-29.63,66.44-65.36,65.89-35.73.55-66.08-29.75-65.36-65.89-.72-36.14,29.63-66.44,65.36-65.89ZM301.23,71.11c-30.53-.73-56.38,25.92-55.84,57.13-.54,31.21,25.32,57.86,55.84,57.13,30.53.73,56.38-25.92,55.84-57.13.54-31.21-25.32-57.86-55.84-57.13Z"/>
        <path class="cls-2" d="M403.4,169.71c9.34,9.37,21.55,15.62,33.76,15.62,16.7,0,28.01-11.57,28.01-26.64,0-13.04-6.82-21.31-23.88-27.01l-5.57-1.84c-20.65-7.17-30.53-18.37-30.53-35.27,0-18.74,14.37-33.07,34.12-33.07,9.52,0,20.29,3.31,30.17,9.92l-1.8,9.74c-9.7-7.16-19.21-10.84-28.37-10.84-14.54,0-24.96,10.29-24.96,24.25,0,13.04,7.9,20.39,24.6,26.09l5.57,1.84c20.65,6.8,29.99,18.92,29.99,36.01,0,20.39-15.62,35.64-37.35,35.64-14.19,0-26.4-6.06-35.91-14.33l2.15-10.1Z"/>
        <path class="cls-2" d="M586.02,143.46h-51.36l-21.55,50.68h-9.7l56.92-132.64,57.1,132.64h-9.88l-21.55-50.68ZM582.43,134.86l-22.09-52.14-22.09,52.14h44.17Z"/>
        <path class="cls-2" d="M673.29,126l55.31-64.35h-12.03l-52.97,62.84v-62.99h-9.16v132.64h9.16v-66.62l54.59,66.62h11.85l-56.75-68.14Z"/>
        <path class="cls-2" d="M770.4,61.5v132.64h9.22V61.5h-9.22Z"/>
      </g>
      <circle class="cls-1" cx="9.7" cy="9.7" r="9.7"/>
      <circle class="cls-1" cx="775.04" cy="9.7" r="9.7"/>
      <path class="cls-2" d="M76.58,269.58l-10.83-12.21v12.21h-2.13v-29.17h5.17c5.75,0,9.83,3.71,9.83,8.83s-4.08,8.75-9.67,8.75l10.42,11.58h-2.79ZM65.75,256.2h3.04c4.54,0,7.58-2.92,7.58-6.92s-3.04-6.88-7.58-6.88h-3.04v13.79Z"/>
      <path class="cls-2" d="M116.33,267.58l-.42,2h-15.38v-29.17h14.88l.42,2h-13.17v11h11.04v2.04h-11.04v12.13h13.67Z"/>
      <path class="cls-2" d="M153.87,258.03h-11.92l-5,11.54h-2.25l13.21-30.21,13.25,30.21h-2.29l-5-11.54ZM153.04,256.07l-5.13-11.88-5.13,11.88h10.25Z"/>
      <path class="cls-2" d="M196.33,267.58l-.42,2h-14.92v-28.92l2.13-.5v27.42h13.21Z"/>
      <path class="cls-2" d="M256.83,267.58l-.42,2h-15.38v-29.17h14.88l.42,2h-13.17v11h11.04v2.04h-11.04v12.13h13.67Z"/>
      <path class="cls-2" d="M276.41,264.49c2.17,2.13,5,3.54,7.83,3.54,3.88,0,6.5-2.62,6.5-6.04,0-2.96-1.58-4.83-5.54-6.13l-1.29-.42c-4.79-1.62-7.08-4.17-7.08-8,0-4.25,3.33-7.5,7.92-7.5,2.21,0,4.71.75,7,2.25l-.42,2.21c-2.25-1.62-4.46-2.46-6.58-2.46-3.38,0-5.79,2.33-5.79,5.5,0,2.96,1.83,4.63,5.71,5.92l1.29.42c4.79,1.54,6.96,4.29,6.96,8.17,0,4.63-3.62,8.08-8.67,8.08-3.29,0-6.13-1.38-8.33-3.25l.5-2.29Z"/>
      <path class="cls-2" d="M321.83,242.41v27.17h-2.12v-27.17h-9.08l.42-2h19.46l.38,2h-9.04Z"/>
      <path class="cls-2" d="M363.25,258.03h-11.92l-5,11.54h-2.25l13.21-30.21,13.25,30.21h-2.29l-5-11.54ZM362.41,256.07l-5.13-11.88-5.13,11.88h10.25Z"/>
      <path class="cls-2" d="M394.91,242.41v27.17h-2.12v-27.17h-9.08l.42-2h19.46l.38,2h-9.04Z"/>
      <path class="cls-2" d="M439.58,267.58l-.42,2h-15.38v-29.17h14.88l.42,2h-13.17v11h11.04v2.04h-11.04v12.13h13.67Z"/>
      <path class="cls-2" d="M500.54,258.03h-11.92l-5,11.54h-2.25l13.21-30.21,13.25,30.21h-2.29l-5-11.54ZM499.71,256.07l-5.13-11.88-5.13,11.88h10.25Z"/>
      <path class="cls-2" d="M549.37,254.45v13.08c-2.67,1.63-6.08,2.5-9.58,2.5-8.29.12-15.25-6.79-15.08-15.04-.17-8.25,6.92-15.17,15.29-15.04,2.88,0,5.67.71,8.13,2.04l-.42,2.21c-2.21-1.46-4.92-2.25-7.71-2.25-7.21-.17-13.21,5.92-13.08,13.04-.17,7.13,5.83,13.21,12.88,13.04,2.79,0,5.25-.58,7.46-1.75v-9.79h-9l.42-2.04h10.71Z"/>
      <path class="cls-2" d="M587.79,258.03h-11.92l-5,11.54h-2.25l13.21-30.21,13.25,30.21h-2.29l-5-11.54ZM586.96,256.07l-5.13-11.88-5.13,11.88h10.25Z"/>
      <path class="cls-2" d="M639.5,270.62l-22.46-25.79v24.75h-2.13v-30.21l22.46,25.75v-24.46l2.12-.54v30.5Z"/>
      <path class="cls-2" d="M676.21,239.95c2.54,0,4.96.58,7.25,1.75l-.42,2.17c-2-1.21-4.42-1.92-6.88-1.92-7.08-.17-13.08,5.92-12.96,13.04-.12,7.13,5.88,13.21,12.96,13.04,2.54,0,4.96-.71,7.25-2.12l.42,2.12c-2.42,1.33-4.96,2-7.67,2-8.38.12-15.33-6.79-15.17-15.04-.17-8.25,6.83-15.17,15.21-15.04Z"/>
      <path class="cls-2" d="M714.46,258.07v11.5h-2.12v-11.5l-9.88-17.67h2.38l8.58,15.46,8.54-15.46h2.38l-9.88,17.67Z"/>
    </g>
  </g>
</svg>