<svg width="185" height="35" viewBox="0 0 185 35" fill="none" xmlns="http://www.w3.org/2000/svg">
<path d="M41.824 29H51.544V26.024H45.376V13.352H41.824V29ZM55.687 15.344C56.887 15.344 57.727 14.576 57.727 13.496C57.727 12.416 56.887 11.672 55.687 11.672C54.511 11.672 53.647 12.416 53.647 13.496C53.647 14.576 54.511 15.344 55.687 15.344ZM53.935 29H57.463V17.096H53.935V29ZM60.5678 29H63.9998V26.072L65.5118 24.368L68.1998 29H72.0158L67.5278 21.992L71.7038 17.096H67.8638L64.0958 21.824H63.9998V12.176H60.5678V29ZM72.3406 23.048C72.3406 26.984 74.9566 29.288 78.3646 29.288C79.7806 29.288 81.3646 28.784 82.5886 27.944L81.4126 25.808C80.5486 26.336 79.7326 26.6 78.8446 26.6C77.2606 26.6 76.0606 25.808 75.7486 24.008H82.8766C82.9486 23.72 83.0206 23.144 83.0206 22.52C83.0206 19.28 81.3406 16.808 77.9566 16.808C75.1006 16.808 72.3406 19.184 72.3406 23.048ZM75.7246 21.824C75.9646 20.24 76.9246 19.496 78.0286 19.496C79.4446 19.496 80.0206 20.456 80.0206 21.824H75.7246ZM90.7146 29H93.9786V23.264C93.9786 21.728 93.6906 19.448 93.5226 17.936H93.6186L94.8666 21.56L97.2666 27.632H98.6826L101.107 21.56L102.379 17.936H102.475C102.307 19.448 102.019 21.728 102.019 23.264V29H105.331V13.352H101.587L99.0426 20.384L98.1066 23.12H98.0106L97.0746 20.384L94.4586 13.352H90.7146V29ZM108.972 30.728L108.348 33.416C108.828 33.56 109.308 33.656 110.028 33.656C112.836 33.656 114.108 32.12 115.236 29.12L119.364 17.096H115.98L114.54 22.208C114.252 23.336 113.988 24.464 113.724 25.592H113.628C113.316 24.416 113.028 23.288 112.692 22.208L110.988 17.096H107.436L112.02 28.688L111.852 29.312C111.54 30.248 110.94 30.872 109.764 30.872C109.5 30.872 109.188 30.776 108.972 30.728ZM125.472 27.032C127.08 28.52 129.24 29.288 131.28 29.288C135 29.288 137.16 27.032 137.16 24.44C137.16 22.232 135.96 20.96 134.064 20.192L132.072 19.376C130.704 18.824 129.672 18.488 129.672 17.528C129.672 16.64 130.464 16.112 131.664 16.112C132.912 16.112 133.896 16.568 134.928 17.36L136.704 15.128C135.36 13.784 133.464 13.064 131.664 13.064C128.424 13.064 126.096 15.128 126.096 17.72C126.096 20 127.632 21.344 129.264 21.992L131.28 22.856C132.648 23.432 133.536 23.744 133.536 24.728C133.536 25.664 132.816 26.24 131.352 26.24C130.056 26.24 128.616 25.568 127.512 24.608L125.472 27.032ZM142.913 28.04C143.753 28.832 144.713 29.288 145.745 29.288C148.313 29.288 150.761 26.936 150.761 22.856C150.761 19.184 148.985 16.808 146.105 16.808C144.857 16.808 143.657 17.432 142.721 18.272H142.625L142.385 17.096H139.505V33.416H143.033V29.936L142.913 28.04ZM143.033 25.64V20.768C143.729 20.024 144.353 19.688 145.073 19.688C146.489 19.688 147.137 20.768 147.137 22.904C147.137 25.352 146.153 26.408 144.929 26.408C144.329 26.408 143.657 26.216 143.033 25.64ZM152.573 25.688C152.573 27.704 153.941 29.288 156.101 29.288C157.445 29.288 158.573 28.664 159.581 27.776H159.653L159.917 29H162.797V22.184C162.797 18.536 161.117 16.808 158.069 16.808C156.197 16.808 154.493 17.456 152.981 18.368L154.229 20.696C155.381 20.024 156.389 19.616 157.397 19.616C158.669 19.616 159.197 20.288 159.269 21.344C154.565 21.824 152.573 23.192 152.573 25.688ZM155.933 25.424C155.933 24.512 156.749 23.792 159.269 23.456V25.544C158.645 26.168 158.117 26.552 157.301 26.552C156.461 26.552 155.933 26.192 155.933 25.424ZM167.578 15.344C168.778 15.344 169.618 14.576 169.618 13.496C169.618 12.416 168.778 11.672 167.578 11.672C166.402 11.672 165.538 12.416 165.538 13.496C165.538 14.576 166.402 15.344 167.578 15.344ZM165.826 29H169.354V17.096H165.826V29ZM172.458 29H175.986V20.96C176.754 20.216 177.306 19.808 178.194 19.808C179.202 19.808 179.658 20.336 179.658 22.064V29H183.186V21.608C183.186 18.632 182.082 16.808 179.49 16.808C177.882 16.808 176.682 17.648 175.674 18.608H175.578L175.338 17.096H172.458V29Z" fill="white"/>
<path d="M16 29H5.81818C3.70946 29 2 27.2905 2 25.1818V13.1261C2 11.9046 2.5845 10.7567 3.57244 10.0382L13.7543 2.63327C15.0931 1.65956 16.9069 1.65956 18.2457 2.63327L28.4276 10.0382C29.4155 10.7567 30 11.9046 30 13.1261V25.1818C30 27.2905 28.2905 29 26.1818 29H24.9091" stroke="white" stroke-width="2.5" stroke-linecap="round"/>
<path d="M7.09091 28.9999H12.9353H16.6185C17.5022 28.9998 18.3543 28.6715 19.0095 28.0786C19.6647 27.4857 20.0763 26.6706 20.1644 25.7913L20.4405 23.0295C20.4777 22.658 20.4366 22.2828 20.3199 21.9282C20.2032 21.5735 20.0135 21.2472 19.7631 20.9704C19.5126 20.6935 19.2069 20.4722 18.8656 20.3207C18.5244 20.1692 18.1552 20.0909 17.7818 20.0908H17.5273C17.291 20.0908 17.0644 19.9969 16.8973 19.8298C16.7302 19.6628 16.6364 19.4362 16.6364 19.1999V18.0544C16.6364 17.7369 16.5738 17.4224 16.4523 17.129C16.3308 16.8356 16.1526 16.569 15.9281 16.3445C15.7035 16.12 15.437 15.9418 15.1436 15.8203C14.8502 15.6988 14.5357 15.6362 14.2182 15.6362C13.7456 15.6362 13.2924 15.824 12.9582 16.1581C12.6241 16.4923 12.4364 16.9455 12.4364 17.418C12.4364 18.5995 11.967 19.7325 11.1317 20.5679C10.2963 21.4033 9.16324 21.8726 7.98182 21.8726H7.09091" stroke="white" stroke-width="2.5" stroke-linecap="round" stroke-linejoin="round"/>
</svg>
